<svg width="96" height="96" viewBox="0 0 96 96" fill="none" xmlns="http://www.w3.org/2000/svg">
  <rect width="96" height="96" rx="20" fill="#0D1117"/>
  <rect x="6" y="6" width="84" height="84" rx="16" fill="url(#paint0_linear_401_1)"/>
  <path d="M26 32C26 28.6863 28.6863 26 32 26H64C67.3137 26 70 28.6863 70 32V64C70 67.3137 67.3137 70 64 70H32C28.6863 70 26 67.3137 26 64V32Z" fill="#0D1117" fill-opacity="0.55"/>
  <path d="M35 58V38H44.05C46.1167 38 47.75 38.5417 48.95 39.625C50.15 40.6917 50.75 42.2 50.75 44.15C50.75 46.1167 50.15 47.6583 48.95 48.775C47.75 49.875 46.1167 50.425 44.05 50.425H39.3V58H35ZM39.3 46.725H43.8C44.8667 46.725 45.6917 46.5 46.275 46.05C46.875 45.5833 47.175 44.9417 47.175 44.125C47.175 43.3083 46.875 42.675 46.275 42.225C45.6917 41.775 44.8667 41.55 43.8 41.55H39.3V46.725Z" fill="#E6EDF3"/>
  <path d="M53.1816 58V38H56.7316L64.9066 49.875V38H69.1066V58H65.6316L57.3816 46.025V58H53.1816Z" fill="#E6EDF3"/>
  <defs>
    <linearGradient id="paint0_linear_401_1" x1="6" y1="6" x2="90" y2="90" gradientUnits="userSpaceOnUse">
      <stop stop-color="#238636"/>
      <stop offset="1" stop-color="#1F6FEB"/>
    </linearGradient>
  </defs>
</svg>
